<?xml version="1.0" standalone="no"?>
<!DOCTYPE svg PUBLIC "-//W3C//DTD SVG 20010904//EN"
 "http://www.w3.org/TR/2001/REC-SVG-20010904/DTD/svg10.dtd">
<svg version="1.0" xmlns="http://www.w3.org/2000/svg"
 width="1536.000000pt" height="1024.000000pt" viewBox="0 0 1536.000000 1024.000000"
 preserveAspectRatio="xMidYMid meet">

<g transform="translate(0.000000,1024.000000) scale(0.100000,-0.100000)"
fill="#000000" stroke="none">
<path d="M3235 7211 c-11 -5 -29 -19 -40 -31 -18 -20 -20 -36 -19 -159 1 -124
4 -144 32 -231 70 -212 200 -370 435 -531 l88 -61 -149 -146 c-264 -260 -365
-459 -365 -722 1 -274 145 -533 431 -771 48 -40 93 -78 100 -84 10 -9 -6 -26
-74 -80 -227 -180 -359 -341 -435 -532 -58 -144 -77 -328 -40 -389 24 -40 71
-60 113 -48 48 14 67 48 75 139 l8 80 461 5 c489 5 480 4 505 53 14 26 -5 71
-37 86 -17 8 -157 11 -455 11 l-430 0 31 58 c58 107 24 96 331 102 253 5 272
6 285 24 18 25 18 56 -1 82 -18 26 -71 33 -273 35 l-143 2 23 25 c35 37 230
192 242 192 18 -1 186 -140 268 -222 120 -121 212 -261 251 -383 9 -27 20 -94
25 -148 10 -109 23 -133 78 -143 44 -8 85 13 107 56 15 29 17 49 12 116 -3 45
-14 116 -24 158 -10 42 -14 79 -10 82 5 3 41 16 81 30 242 82 636 102 1030 52
94 -11 138 -3 155 30 9 19 17 2154 8 2189 -9 36 -44 52 -154 67 -56 8 -104 16
-106 18 -3 2 -7 56 -10 119 -8 147 -10 156 -43 173 -67 34 -429 29 -622 -10
-250 -50 -464 -161 -647 -337 l-82 -79 -56 48 c-30 26 -55 51 -55 55 0 4 43
37 96 75 244 173 386 362 444 588 24 97 27 249 5 302 -27 65 -113 78 -159 24
-19 -23 -24 -44 -30 -122 -9 -116 -19 -155 -62 -242 -69 -137 -202 -278 -389
-410 l-108 -76 -46 27 c-82 47 -261 188 -261 205 0 7 91 8 254 3 l255 -7 25
25 c32 32 33 67 3 95 -23 22 -28 22 -348 22 l-324 0 -28 46 c-23 39 -57 109
-57 120 0 2 206 4 458 6 413 3 460 5 484 20 15 10 29 27 33 38 8 27 -18 68
-48 75 -36 9 -181 13 -579 14 l-378 1 0 43 c0 70 -18 116 -53 137 -34 21 -59
24 -92 11z m2235 -1819 l0 -967 -202 -1 c-233 0 -341 -15 -508 -70 -114 -38
-206 -84 -286 -144 l-51 -38 -79 79 c-43 44 -113 107 -155 141 l-77 62 52 45
c269 238 401 419 458 633 30 115 30 298 -1 413 -36 135 -101 257 -198 372
l-44 52 70 66 c170 161 330 246 556 295 100 22 313 38 413 32 l52 -4 0 -966z
m-1469 632 c284 -208 440 -443 440 -664 0 -114 -13 -163 -71 -285 -59 -122
-157 -244 -295 -365 -143 -125 -133 -122 -199 -71 -31 24 -56 46 -56 50 0 3
38 6 84 6 69 0 88 3 105 19 27 24 27 70 1 96 -18 18 -33 20 -183 20 l-163 0
-26 28 c-33 35 -108 142 -108 155 0 6 135 8 354 6 337 -4 355 -3 375 15 25 23
28 72 4 98 -15 17 -41 18 -382 19 -201 1 -379 4 -396 8 -35 7 -49 41 -61 140
l-7 61 443 0 c399 0 445 2 462 17 28 25 24 77 -8 102 -26 20 -37 21 -446 21
l-420 0 7 28 c12 51 62 137 86 149 17 9 95 13 270 13 225 0 249 2 270 18 28
23 30 73 4 102 -16 18 -33 20 -224 22 l-206 3 55 54 c57 56 209 181 221 181 4
0 35 -21 70 -46z m1735 2 c1 0 3 -433 5 -961 l4 -960 -30 2 c-16 1 -138 5
-271 9 -354 10 -572 -15 -799 -90 -94 -32 -114 -33 -115 -5 0 12 120 90 182
119 192 89 470 126 758 101 95 -8 145 1 160 29 6 12 10 323 10 893 l0 875 48
-6 c26 -2 48 -5 48 -6z"/>
<path d="M2797 6121 c-75 -16 -69 80 -68 -1097 l2 -1059 22 -24 c24 -25 24
-25 349 -4 l97 6 31 66 31 66 -23 18 c-20 17 -39 19 -185 15 l-163 -3 2 925 3
925 121 -2 c67 -1 163 -9 214 -18 51 -9 93 -15 95 -13 1 2 25 37 53 79 l50 76
-121 23 c-130 25 -433 37 -510 21z"/>
<path d="M6477 6074 c-4 -4 -7 -189 -7 -411 l0 -403 55 0 55 0 0 42 0 42 33
-32 c102 -99 283 -79 364 42 41 60 56 113 56 197 0 172 -103 289 -256 289 -68
0 -110 -16 -160 -60 l-36 -32 -3 164 -3 163 -45 3 c-25 2 -49 0 -53 -4z m364
-357 c54 -35 81 -99 77 -177 -7 -113 -56 -178 -143 -187 -58 -7 -108 11 -144
52 -86 99 -57 271 54 321 48 21 117 17 156 -9z"/>
<path d="M7150 6060 c-27 -27 -26 -71 3 -98 48 -45 117 -14 117 52 0 60 -77
89 -120 46z"/>
<path d="M10597 6074 c-4 -4 -7 -79 -7 -167 l0 -160 -20 26 c-53 67 -181 87
-276 43 -60 -28 -117 -91 -138 -154 -35 -101 -13 -246 48 -327 80 -105 273
-114 362 -18 l24 26 0 -42 0 -41 55 0 55 0 -2 408 -3 407 -45 3 c-25 2 -49 0
-53 -4z m-98 -355 c110 -61 124 -242 25 -328 -41 -36 -71 -45 -126 -38 -162
22 -202 268 -59 364 44 30 110 30 160 2z"/>
<path d="M10851 6054 c-12 -15 -21 -34 -21 -44 0 -10 9 -29 21 -44 39 -50 122
-22 122 42 0 69 -80 99 -122 46z"/>
<path d="M12077 6062 c-40 -44 -6 -122 52 -122 34 0 71 39 71 76 0 55 -86 87
-123 46z"/>
<path d="M9202 5971 c-10 -6 -13 -27 -10 -74 l3 -66 -55 -3 -55 -3 0 -45 0
-45 55 -5 55 -5 0 -180 c0 -162 2 -183 20 -213 37 -62 116 -92 210 -78 l45 7
0 47 0 47 -53 -3 c-42 -3 -58 1 -80 18 l-27 21 0 170 0 169 80 0 80 0 0 50 0
50 -80 0 -79 0 -3 73 -3 72 -45 3 c-25 1 -51 -2 -58 -7z"/>
<path d="M11677 5973 c-4 -3 -7 -37 -7 -74 l0 -68 -57 -3 -58 -3 0 -45 0 -45
57 -3 57 -3 3 -188 c3 -187 3 -188 30 -223 38 -50 100 -72 179 -65 34 3 65 10
68 16 6 9 7 41 2 76 0 6 -24 9 -56 7 -50 -4 -57 -1 -85 26 l-30 30 0 161 0
160 88 3 87 3 0 35 c1 59 0 60 -91 60 l-84 0 0 75 0 75 -48 0 c-27 0 -52 -3
-55 -7z"/>
<path d="M7570 5831 c-126 -41 -198 -133 -208 -262 -9 -125 51 -239 152 -291
58 -30 159 -35 227 -13 77 26 152 103 175 180 57 198 -63 382 -256 391 -36 2
-76 0 -90 -5z m168 -118 c146 -108 82 -363 -90 -363 -59 0 -98 19 -132 62 -76
101 -45 268 59 314 42 20 129 13 163 -13z"/>
<path d="M8174 5824 c-60 -22 -119 -77 -151 -142 -37 -77 -40 -191 -5 -267 75
-164 275 -218 414 -112 42 33 91 104 82 119 -3 4 -26 8 -51 8 -40 0 -50 -4
-77 -36 -36 -41 -91 -58 -149 -44 -46 10 -82 41 -108 92 -36 70 -43 68 190 68
234 0 226 -3 215 73 -16 116 -60 184 -147 227 -68 34 -142 39 -213 14z m175
-103 c35 -25 60 -61 67 -98 l7 -33 -157 0 c-100 0 -156 4 -156 10 0 23 29 77
55 103 49 48 131 57 184 18z"/>
<path d="M8735 5826 c-22 -9 -57 -33 -77 -55 -34 -36 -38 -46 -38 -91 0 -98
38 -135 176 -175 49 -14 100 -34 114 -44 38 -27 37 -63 -2 -96 -28 -24 -38
-27 -85 -23 -54 5 -103 35 -103 65 0 9 -16 13 -55 13 -49 0 -55 -2 -55 -20 0
-12 6 -33 14 -48 51 -97 202 -133 317 -74 69 35 99 78 99 144 0 89 -40 131
-155 163 -113 31 -146 46 -156 72 -17 46 32 93 96 93 37 0 70 -19 89 -51 16
-27 22 -30 64 -27 45 3 47 4 45 31 -3 39 -44 90 -90 113 -50 24 -147 28 -198
10z"/>
<path d="M9716 5825 c-51 -18 -85 -44 -113 -85 -37 -54 -31 -70 24 -70 40 0
50 4 72 31 50 58 159 58 203 -2 11 -14 22 -44 25 -67 l6 -42 -114 0 c-99 0
-121 -3 -165 -24 -66 -31 -98 -80 -98 -151 0 -101 73 -165 187 -165 65 0 108
15 155 54 l32 28 0 -36 0 -36 55 0 55 0 0 198 c0 113 -5 214 -11 237 -15 52
-82 119 -134 134 -54 15 -131 13 -179 -4z m214 -358 c0 -45 -25 -79 -77 -106
-38 -19 -127 -14 -157 10 -34 27 -36 77 -3 106 32 29 41 31 145 32 l92 1 0
-43z"/>
<path d="M11205 5828 c-78 -27 -125 -87 -125 -160 0 -83 49 -128 175 -163 128
-35 158 -59 140 -114 -17 -55 -140 -68 -190 -21 -14 13 -25 29 -25 37 0 9 -16
13 -55 13 -55 0 -55 0 -55 -31 0 -42 69 -112 125 -128 96 -26 193 -8 257 49
38 34 42 41 46 97 7 105 -29 144 -173 184 -118 32 -135 42 -135 84 0 29 6 39
33 55 17 11 45 20 60 20 40 0 86 -27 97 -55 8 -22 16 -25 60 -25 44 0 50 3 50
20 0 53 -63 122 -128 140 -46 12 -118 12 -157 -2z"/>
<path d="M12466 5820 c-107 -43 -167 -131 -174 -256 -10 -181 85 -300 247
-312 132 -9 240 57 265 161 l6 27 -59 0 c-50 0 -61 -3 -66 -20 -3 -10 -20 -31
-36 -45 -24 -20 -41 -25 -83 -25 -103 0 -161 71 -161 195 0 86 22 136 76 172
72 47 181 19 210 -54 7 -20 16 -23 64 -23 51 0 55 2 55 23 0 39 -55 113 -105
143 -64 37 -168 43 -239 14z"/>
<path d="M13024 5823 c-71 -31 -124 -86 -124 -129 0 -21 5 -24 41 -24 33 0 49
7 80 35 75 67 195 43 219 -43 20 -72 24 -70 -118 -73 -121 -4 -131 -6 -171
-32 -109 -72 -104 -227 9 -284 31 -16 62 -23 102 -23 66 0 108 15 156 54 l32
28 0 -36 0 -36 55 0 55 0 0 193 c0 107 -5 210 -11 232 -26 94 -99 146 -214
152 -51 2 -81 -2 -111 -14z m226 -356 c0 -45 -25 -79 -77 -106 -29 -15 -134
-14 -154 2 -49 37 -47 96 4 127 26 16 50 20 130 20 l97 0 0 -43z"/>
<path d="M7151 5817 c-8 -11 -11 -88 -9 -283 l3 -269 55 0 55 0 0 280 0 280
-46 3 c-30 2 -50 -2 -58 -11z"/>
<path d="M10856 5822 c-4 -3 -6 -131 -6 -284 l0 -278 55 0 55 0 -2 283 -3 282
-47 1 c-26 1 -49 -1 -52 -4z"/>
<path d="M12075 5818 c-3 -7 -4 -135 -3 -283 l3 -270 53 -3 52 -3 -2 283 -3
283 -48 3 c-32 2 -49 -1 -52 -10z"/>
<path d="M7497 5014 c-4 -4 -7 -72 -7 -152 l0 -144 -30 26 c-83 69 -238 58
-319 -23 -117 -117 -117 -346 1 -458 96 -92 281 -99 342 -12 14 21 15 21 18
-12 l3 -34 68 -3 67 -3 -2 408 -3 408 -65 3 c-36 2 -69 0 -73 -4z m-66 -387
c89 -59 93 -205 7 -271 -49 -37 -124 -37 -168 0 -42 36 -60 74 -60 131 0 93
62 163 145 163 27 0 54 -8 76 -23z"/>
<path d="M6647 4780 c-148 -37 -235 -185 -205 -350 12 -65 27 -97 70 -146 88
-100 247 -119 362 -42 39 25 96 98 96 121 0 4 -29 7 -64 7 -45 0 -67 -4 -77
-16 -68 -83 -217 -41 -244 69 l-7 27 203 2 204 3 -2 61 c-3 110 -67 212 -158
250 -45 18 -131 25 -178 14z m127 -122 c27 -12 50 -41 66 -83 l10 -25 -135 0
-134 0 10 30 c17 48 73 90 119 90 21 0 50 -5 64 -12z"/>
<path d="M7757 4774 c-4 -4 -7 -103 -7 -220 l0 -212 28 -53 c20 -39 38 -58 71
-76 76 -40 189 -27 248 29 l23 21 0 -32 0 -32 68 3 67 3 3 288 2 288 -72 -3
-73 -3 -5 -196 c-6 -219 -8 -227 -76 -249 -43 -14 -99 2 -117 33 -8 15 -14 89
-17 217 l-5 195 -65 3 c-36 2 -69 0 -73 -4z"/>
<path d="M8725 4756 c-109 -50 -173 -167 -162 -296 13 -161 122 -264 277 -262
102 1 180 45 220 123 32 62 28 69 -37 69 -55 0 -59 -2 -74 -33 -32 -66 -132
-85 -200 -36 -99 71 -97 278 4 339 73 45 155 31 196 -33 23 -35 27 -37 78 -37
41 0 53 3 53 15 0 57 -80 146 -147 164 -66 19 -153 13 -208 -13z"/>
<path d="M9314 4764 c-57 -20 -115 -72 -144 -130 -32 -64 -39 -180 -16 -251
65 -196 322 -251 467 -99 105 108 104 310 -2 415 -74 75 -201 102 -305 65z
m187 -100 c56 -28 94 -115 87 -194 -23 -235 -319 -233 -336 1 -12 161 118 261
249 193z"/>
<path d="M9972 4763 c-19 -9 -41 -28 -50 -42 l-17 -25 -5 34 c-5 34 -6 35 -58
38 l-52 3 2 -283 3 -283 50 0 50 0 5 195 c5 212 9 228 63 260 54 33 141 19
163 -27 5 -10 11 -110 14 -223 l5 -205 43 -3 c73 -5 73 -3 71 205 -2 203 2
215 64 253 38 24 78 25 117 5 50 -26 55 -44 60 -260 l5 -200 50 0 50 0 3 200
c2 131 -1 214 -9 240 -26 91 -88 135 -189 135 -67 0 -108 -16 -156 -61 l-30
-29 -21 28 c-12 16 -37 36 -56 45 -45 22 -132 21 -175 0z"/>
<path d="M8394 4348 c-47 -22 -56 -86 -19 -123 51 -52 135 -18 135 54 0 60
-60 96 -116 69z"/>
</g>
</svg>
