<svg version="1.1" xmlns="http://www.w3.org/2000/svg" style="display: block;" viewBox="0 0 2048 1822" width="734" height="653" preserveAspectRatio="none">
<defs>
	<linearGradient id="Gradient1" gradientUnits="userSpaceOnUse" x1="927.952" y1="372.947" x2="1123.29" y2="376.789">
		<stop class="stop0" offset="0" stop-opacity="1" stop-color="rgb(158,165,15)"/>
		<stop class="stop1" offset="1" stop-opacity="1" stop-color="rgb(85,177,34)"/>
	</linearGradient>
	<linearGradient id="Gradient2" gradientUnits="userSpaceOnUse" x1="904.933" y1="1289.93" x2="1141.21" y2="1268.4">
		<stop class="stop0" offset="0" stop-opacity="1" stop-color="rgb(178,163,11)"/>
		<stop class="stop1" offset="1" stop-opacity="1" stop-color="rgb(90,177,34)"/>
	</linearGradient>
	<linearGradient id="Gradient3" gradientUnits="userSpaceOnUse" x1="103.116" y1="779.02" x2="950.878" y2="768.827">
		<stop class="stop0" offset="0" stop-opacity="1" stop-color="rgb(255,99,8)"/>
		<stop class="stop1" offset="1" stop-opacity="1" stop-color="rgb(174,163,4)"/>
	</linearGradient>
	<linearGradient id="Gradient4" gradientUnits="userSpaceOnUse" x1="1072.48" y1="760.043" x2="1918.87" y2="779.926">
		<stop class="stop0" offset="0" stop-opacity="1" stop-color="rgb(91,180,31)"/>
		<stop class="stop1" offset="1" stop-opacity="1" stop-color="rgb(0,170,106)"/>
	</linearGradient>
</defs>
<path transform="translate(0,0)" fill="rgb(255,255,254)" d="M 0 0 L 2048 0 L 2048 1822 L 0 1822 L 0 0 z"/>
<path transform="translate(0,0)" fill="url(#Gradient4)" d="M 879.134 239.393 C 883.801 235.196 966.277 201.007 979.087 196.018 C 990.65 191.514 1002.08 189.049 1014.52 190.089 C 1042 192.385 1102.85 223.156 1131.1 235.625 C 1188.88 259.058 1249.99 286.554 1307.3 311.546 L 1591.57 434.594 C 1664.34 464.948 1736.78 496.057 1808.9 527.916 L 1869.23 554.28 C 1886.15 561.677 1916.04 571.628 1923.58 589.13 C 1937.51 621.453 1890.34 636.255 1869.42 645.291 L 1814.98 668.823 L 1688.29 723.942 C 1655.25 738.109 1620.12 752.493 1587.6 767.532 L 1587.8 992.297 L 1587.81 1059.33 C 1587.81 1103.9 1592.39 1126.64 1544.27 1143.73 C 1508.49 1156.44 1472.05 1168.4 1436.04 1180.54 C 1372.68 1201.61 1309.55 1223.35 1246.65 1245.76 C 1225.1 1253.35 1204.68 1260.84 1184.42 1271.33 C 1181.49 1272.84 1169.61 1279.05 1167.06 1279.6 C 1156.08 1286.35 1142.8 1292.01 1131.55 1298.37 C 1102.57 1314.77 1069.2 1330.37 1040.9 1347.53 C 1040.87 1371.41 1039.96 1402.24 1041.22 1425.56 C 1073.88 1471.12 1103.69 1508.86 1097.62 1573.13 C 1094.58 1605.35 1049.73 1669.81 1011.43 1672.2 C 997.316 1673.07 955.378 1632.5 948.533 1620.27 C 913.32 1570.38 928.427 1509.04 960.226 1461.86 C 965.185 1454.51 983.633 1430.63 984.079 1423.92 C 985.518 1402.2 985.265 1368.48 984.767 1346.95 C 961.056 1332.63 935.698 1319.93 911.438 1306.56 C 904.39 1302.67 885.809 1293.6 879.94 1289.49 C 875.479 1288.24 859.429 1279.23 854.063 1276.8 C 831.151 1266.43 809.757 1256.27 786.09 1247.63 C 720.912 1224.05 655.355 1201.52 589.447 1180.06 C 548.882 1166.82 507.531 1154.33 467.743 1138.89 C 430.095 1124.29 435.247 1092.91 435.261 1059.4 L 435.324 994.501 L 435.334 767.006 C 359.127 732.632 281.899 700.079 205.416 666.077 C 188.201 658.357 170.925 650.774 153.589 643.329 C 144.624 639.461 122.925 631.085 116.063 625.972 C 61.2844 585.16 152.823 556.201 179.116 544.726 L 261.06 508.917 L 531.513 390.464 L 763.494 289.298 L 835.483 257.775 C 848.423 252.108 866.088 243.959 879.134 239.393 z"/>
<path transform="translate(0,0)" fill="url(#Gradient3)" d="M 879.134 239.393 L 880.389 240.828 C 891.093 237.239 924.692 219.53 931.684 220.258 L 932.422 221.543 C 931.504 224.604 930.96 224.501 931.694 226.935 C 939.385 252.453 941.183 279.589 942.163 305.984 C 942.914 326.208 945.119 347.877 945.383 367.913 C 945.594 383.893 943.982 402.371 943.601 418.576 C 942.698 457.944 942.842 497.329 944.033 536.69 C 944.202 541.212 942.301 545.051 942.231 549.234 C 942.174 552.579 944.602 553.482 943.051 556.94 C 941.435 557.21 939.822 557.499 938.213 557.807 C 933.064 567.002 938.727 580.924 945.453 588.045 C 951.743 597.958 942.553 610.085 943.606 620.71 C 944.862 633.386 947.99 645.957 948.222 658.81 C 949.306 676.427 946.047 694.738 946.817 712.214 C 948.159 733.295 946.035 754.509 947.853 775.375 C 948.216 779.552 952.56 776.417 950.973 780.746 C 947.051 791.449 923.282 810.394 939.274 821.431 C 942.553 825.486 939.809 831.481 939.989 836.941 C 940.301 846.373 940.263 855.079 939.374 864.371 L 940.791 864.192 C 944.958 863.68 946.306 863.239 950.244 864.718 C 931.046 867.573 938.139 872.897 935.746 887.755 C 933.707 895.681 946.432 895.266 946.216 898.631 C 943.874 935.138 951.504 970.686 948.652 1007.19 C 948.019 1015.3 950.047 1026.03 948.362 1033.83 C 946.956 1028.71 949.306 1021.81 947.606 1015.29 C 944.59 1018.1 947.617 1072.5 948.04 1081.58 C 948.435 1090.08 945.813 1119.52 948.216 1125.74 L 950.08 1127.55 C 949.163 1129.37 949.095 1129.6 947.807 1131.16 C 946.935 1145.53 947.849 1159.24 947.915 1173.5 C 946.907 1182.7 952.046 1178.72 948.529 1187.63 C 945.38 1195.61 949.189 1209 948.968 1218.25 C 948.314 1245.71 946.22 1273.09 946.396 1300.57 C 946.427 1305.4 947.149 1315.42 944.059 1319.08 C 930.531 1320.84 892.41 1287.35 879.94 1289.49 C 875.479 1288.24 859.429 1279.23 854.063 1276.8 C 831.151 1266.43 809.757 1256.27 786.09 1247.63 C 720.912 1224.05 655.355 1201.52 589.447 1180.06 C 548.882 1166.82 507.531 1154.33 467.743 1138.89 C 430.095 1124.29 435.247 1092.91 435.261 1059.4 L 435.324 994.501 L 435.334 767.006 C 359.127 732.632 281.899 700.079 205.416 666.077 C 188.201 658.357 170.925 650.774 153.589 643.329 C 144.624 639.461 122.925 631.085 116.063 625.972 C 61.2844 585.16 152.823 556.201 179.116 544.726 L 261.06 508.917 L 531.513 390.464 L 763.494 289.298 L 835.483 257.775 C 848.423 252.108 866.088 243.959 879.134 239.393 z"/>
<path transform="translate(0,0)" fill="rgb(255,255,254)" d="M 665.35 785.854 C 679.787 768.882 696.332 745.165 715.131 733.826 C 721.235 730.144 749.72 728.848 752.737 736.03 C 748.141 743.261 732.945 759.065 726.559 766.06 C 710.986 782.992 695.571 800.069 680.317 817.289 C 691.407 835.202 700.359 856.439 712.205 875.692 C 742.976 878.812 740.96 906.291 713.245 911.799 C 681.937 913.811 667.284 871.488 655.437 847.63 C 644.145 864.007 625.202 884.699 611.913 899.552 C 600.391 912.429 579.452 911.52 563.889 905.245 C 569.819 897.06 580.161 885.887 586.931 877.998 C 604.297 857.765 622.363 838.332 639.718 818.034 C 624.666 784.533 617.527 768.152 598.585 736.542 C 604.151 733.468 605.234 732.929 611.409 731.314 C 651.595 728.177 650.481 754.971 665.35 785.854 z"/>
<path transform="translate(0,0)" fill="rgb(255,255,254)" d="M 792.545 790.33 C 805.717 789.247 879.548 787.669 887.837 792.722 C 891.205 797.532 889.997 803.142 889.591 808.903 C 889.389 811.762 886.841 813.102 884.746 814.641 C 870.805 815.459 796.858 817.527 789.004 811.487 C 785.984 806.308 786.728 801.371 787.124 795.371 C 787.28 793.004 790.452 791.632 792.545 790.33 z"/>
<path transform="translate(0,0)" fill="rgb(255,255,254)" d="M 798.67 848.376 C 823.134 847.512 859.834 847.162 884.456 849.89 C 887.907 850.272 896.26 870.04 879.25 873.368 C 854.626 873.687 829.859 873.43 805.289 873.428 C 799.366 873.428 788.172 873.44 787.496 866.694 C 786.202 853.786 786.772 850.512 798.67 848.376 z"/>
<path transform="translate(0,0)" fill="url(#Gradient2)" d="M 879.94 1289.49 C 892.41 1287.35 930.531 1320.84 944.059 1319.08 C 947.149 1315.42 946.427 1305.4 946.396 1300.57 C 946.22 1273.09 948.314 1245.71 948.968 1218.25 C 949.189 1209 945.38 1195.61 948.529 1187.63 C 952.046 1178.72 946.907 1182.7 947.915 1173.5 C 947.849 1159.24 946.935 1145.53 947.807 1131.16 C 949.095 1129.6 949.163 1129.37 950.08 1127.55 L 948.216 1125.74 C 945.813 1119.52 948.435 1090.08 948.04 1081.58 C 947.617 1072.5 944.59 1018.1 947.606 1015.29 C 949.306 1021.81 946.956 1028.71 948.362 1033.83 C 950.047 1026.03 948.019 1015.3 948.652 1007.19 C 951.504 970.686 943.874 935.138 946.216 898.631 C 946.432 895.266 933.707 895.681 935.746 887.755 C 938.748 891.84 941.952 893.668 947.087 894.146 C 960.747 895.416 976.116 894.923 989.868 894.902 L 1075.69 894.758 C 1087 894.754 1108.47 894.132 1118.66 895.021 C 1114.84 897.406 1096.67 896.476 1091.16 896.359 L 1091.11 896.888 C 1096.31 897.944 1097.09 897.21 1101.21 900.772 L 1103.05 899.619 C 1104.89 903.272 1102.35 908.604 1103.96 912.425 C 1108.88 924.066 1109.2 943.877 1102.94 956.039 C 1099.24 958.751 1100.3 957.289 1098.45 961.437 L 1099.44 962.466 C 1102.22 962.51 1111.19 962.208 1112.93 963.25 C 1110.76 963.587 1108.59 963.964 1106.43 964.381 C 1100.23 964.919 1093.26 965.419 1087.14 966.217 C 1086.75 1004.04 1080.01 1038.18 1075.05 1075.53 C 1073.74 1085.43 1069.06 1112.92 1069.86 1121.56 C 1075.2 1125.58 1091.2 1124.08 1098.39 1123.87 L 1099.81 1126.96 C 1104.07 1128.28 1103.54 1127.45 1106.25 1130.28 C 1106.33 1132.01 1104.94 1136.84 1104.62 1135.55 C 1109.15 1154.11 1116.32 1173.18 1114.41 1192.37 C 1114.11 1195.31 1121.79 1212.27 1119.81 1217.2 C 1118.92 1226.42 1125.14 1235.43 1126.84 1244.2 C 1128.22 1251.28 1126.28 1262.01 1128.94 1268.86 C 1130.89 1273.9 1140.52 1286.04 1145.35 1288.03 C 1151 1285.55 1161.62 1279.45 1166.4 1279.59 L 1167.06 1279.6 C 1156.08 1286.35 1142.8 1292.01 1131.55 1298.37 C 1102.57 1314.77 1069.2 1330.37 1040.9 1347.53 C 1040.87 1371.41 1039.96 1402.24 1041.22 1425.56 C 1073.88 1471.12 1103.69 1508.86 1097.62 1573.13 C 1094.58 1605.35 1049.73 1669.81 1011.43 1672.2 C 997.316 1673.07 955.378 1632.5 948.533 1620.27 C 913.32 1570.38 928.427 1509.04 960.226 1461.86 C 965.185 1454.51 983.633 1430.63 984.079 1423.92 C 985.518 1402.2 985.265 1368.48 984.767 1346.95 C 961.056 1332.63 935.698 1319.93 911.438 1306.56 C 904.39 1302.67 885.809 1293.6 879.94 1289.49 z"/>
<path transform="translate(0,0)" fill="url(#Gradient1)" d="M 879.134 239.393 C 883.801 235.196 966.277 201.007 979.087 196.018 C 990.65 191.514 1002.08 189.049 1014.52 190.089 C 1042 192.385 1102.85 223.156 1131.1 235.625 L 1129.46 235.729 C 1127.43 235.838 1127.24 235.819 1125.26 235.119 L 1124.04 235.797 C 1125.1 237.014 1126.09 238.25 1127.02 239.573 C 1111.92 254.09 1103.74 407.087 1100.81 434.17 C 1100.37 438.224 1102.6 443.902 1100.04 447.693 L 1100.83 448.753 L 1100.04 449.717 C 1103.05 453.744 1099.61 461.34 1102.92 466.499 C 1106.05 471.358 1099.31 474.888 1101.86 482.694 C 1099.99 487.925 1096.52 487.891 1095.63 493.611 C 1099.91 496.565 1114.49 493.149 1121.93 494.995 C 1119.87 496.28 1118.73 496.372 1116.37 496.954 C 1123.95 497.024 1132.64 496.159 1138.79 500.337 C 1159.12 532.201 1093.88 522.932 1078.73 523.366 C 1076.41 525.157 1064.7 524.436 1060.95 524.948 C 1067.81 525.79 1072.45 524.544 1079.77 526.306 C 1088.86 528.49 1090.27 522.904 1097.16 532.957 C 1106.36 546.405 1096.39 549.015 1095.34 555.222 C 1102.61 558.11 1112.41 552.508 1115.27 557.851 L 997.308 557.942 C 982.394 557.931 952.203 557.119 938.841 558.61 C 938.603 574.076 938.608 575.455 947.88 587.999 L 945.453 588.045 C 938.727 580.924 933.064 567.002 938.213 557.807 C 939.822 557.499 941.435 557.21 943.051 556.94 C 944.602 553.482 942.174 552.579 942.231 549.234 C 942.301 545.051 944.202 541.212 944.033 536.69 C 942.842 497.329 942.698 457.944 943.601 418.576 C 943.982 402.371 945.594 383.893 945.383 367.913 C 945.119 347.877 942.914 326.208 942.163 305.984 C 941.183 279.589 939.385 252.453 931.694 226.935 C 930.96 224.501 931.504 224.604 932.422 221.543 L 931.684 220.258 C 924.692 219.53 891.093 237.239 880.389 240.828 L 879.134 239.393 z"/>
<path transform="translate(0,0)" fill="rgb(255,255,254)" d="M 1116.37 496.954 C 1123.95 497.024 1132.64 496.159 1138.79 500.337 C 1159.12 532.201 1093.88 522.932 1078.73 523.366 L 1015.67 523.323 C 1006.46 523.332 976.393 527.268 976.117 514.402 C 975.873 502.974 976.835 497.645 989.454 497.321 C 1031.72 496.235 1074.11 497.859 1116.37 496.954 z"/>
<path transform="translate(0,0)" fill="rgb(255,255,254)" d="M 1115.27 557.851 C 1140.21 557.933 1140.61 556.133 1140.48 582.03 C 1140.38 602.165 1147.54 619.455 1116.9 615.232 C 1114.11 614.848 1112.67 612.139 1111.3 609.93 C 1109.93 611.778 1108.69 613.435 1107.02 615.026 C 1093.93 627.485 1096.37 731.097 1096.47 753.822 C 1096.52 763.802 1102.18 771.313 1102.54 780.632 C 1099.23 782.268 1092.87 784.635 1092.34 788.556 C 1095.06 788.684 1097.83 788.744 1100.51 789.119 C 1115.08 784.621 1107.29 767.961 1118.98 762.38 C 1124.35 759.822 1135.75 760.789 1139.63 766.14 C 1140.69 774.72 1142.11 808.713 1137.35 816.153 C 1133.22 822.6 1110.02 819.791 1101.3 820.15 C 1067.31 818.872 1026.63 819.979 992.195 820.036 C 983.717 822.587 948.476 822.751 939.274 821.431 C 923.282 810.394 947.051 791.449 950.973 780.746 C 952.56 776.417 948.216 779.552 947.853 775.375 C 946.035 754.509 948.159 733.295 946.817 712.214 C 946.047 694.738 949.306 676.427 948.222 658.81 C 947.99 645.957 944.862 633.386 943.606 620.71 C 942.553 610.085 951.743 597.958 945.453 588.045 L 947.88 587.999 C 938.608 575.455 938.603 574.076 938.841 558.61 C 952.203 557.119 982.394 557.931 997.308 557.942 L 1115.27 557.851 z"/>
<path transform="translate(0,0)" fill="rgb(110,173,27)" d="M 992.84 586.09 C 1013.3 588.034 1088.49 582.462 1099.51 588.797 C 1106.47 592.796 1109.52 602.579 1111.3 609.93 C 1109.93 611.778 1108.69 613.435 1107.02 615.026 C 1093.93 627.485 1096.37 731.097 1096.47 753.822 C 1096.52 763.802 1102.18 771.313 1102.54 780.632 C 1099.23 782.268 1092.87 784.635 1092.34 788.556 C 1095.06 788.684 1097.83 788.744 1100.51 789.119 C 1093.65 790.497 1070.85 789.979 1062.54 789.955 L 992.255 789.789 C 1016.47 764.026 1051.61 713.006 1071.64 682.966 C 1046.39 656.466 1017.76 616.077 992.84 586.09 z"/>
<path transform="translate(0,0)" fill="rgb(144,167,18)" d="M 945.453 588.045 L 947.88 587.999 C 972.023 620.194 998.154 654.051 1020.36 687.417 C 998.861 722.844 976.073 760.955 948.049 791.76 C 944.667 795.477 940.771 799.246 937.81 803.265 C 937.327 808.251 936.469 812.433 937.864 817.169 C 942.789 822.055 982.737 819.775 992.195 820.036 C 983.717 822.587 948.476 822.751 939.274 821.431 C 923.282 810.394 947.051 791.449 950.973 780.746 C 952.56 776.417 948.216 779.552 947.853 775.375 C 946.035 754.509 948.159 733.295 946.817 712.214 C 946.047 694.738 949.306 676.427 948.222 658.81 C 947.99 645.957 944.862 633.386 943.606 620.71 C 942.553 610.085 951.743 597.958 945.453 588.045 z"/>
<path transform="translate(0,0)" fill="rgb(255,255,254)" d="M 1124.57 987.149 C 1133.93 972.667 1144.44 962.918 1162.37 959.157 C 1189.57 953.447 1223.28 963.195 1226.8 995.495 C 1229.04 1015.95 1223.02 1043.84 1219.8 1065.27 C 1216.92 1084.69 1214.3 1104.15 1211.95 1123.64 C 1205.57 1123.91 1182.18 1125.56 1177.47 1122.88 C 1172.42 1117.57 1177.11 1099.82 1177.78 1094.13 C 1179.25 1083.53 1181.63 1071.42 1183 1060.98 C 1186.01 1038.15 1201.42 989.024 1160 993.449 C 1105.44 999.278 1117.26 1084.02 1105.66 1121.67 C 1105.31 1122.79 1099.4 1123.7 1098.39 1123.87 C 1091.2 1124.08 1075.2 1125.58 1069.86 1121.56 C 1069.06 1112.92 1073.74 1085.43 1075.05 1075.53 C 1080.01 1038.18 1086.75 1004.04 1087.14 966.217 C 1093.26 965.419 1100.23 964.919 1106.43 964.381 C 1124.47 965.26 1125.35 970.145 1124.57 987.149 z"/>
<path transform="translate(0,0)" fill="rgb(255,255,254)" d="M 1060.28 864.977 L 1264.57 865.135 L 1325.04 865.131 C 1335.8 865.128 1346.44 865.026 1357.21 865.309 C 1368.37 865.103 1371.26 872.281 1371.39 882.229 C 1371.5 891.422 1362.92 894.99 1354.92 894.959 C 1307.84 894.778 1260.67 894.546 1213.59 894.755 C 1182.1 894.895 1150.07 894.079 1118.66 895.021 C 1108.47 894.132 1087 894.754 1075.69 894.758 L 989.868 894.902 C 976.116 894.923 960.747 895.416 947.087 894.146 C 941.952 893.668 938.748 891.84 935.746 887.755 C 938.139 872.897 931.046 867.573 950.244 864.718 C 958.335 865.446 969.063 865.323 977.296 865.117 C 1004.68 864.429 1032.98 865.969 1060.28 864.977 z"/>
<path transform="translate(0,0)" fill="rgb(110,173,27)" d="M 992.195 820.036 C 1026.63 819.979 1067.31 818.872 1101.3 820.15 C 1083.73 821.354 1065.34 820.241 1048.12 821.73 C 1056.63 822.367 1064.87 822.777 1073.38 822.059 C 1078.63 821.617 1082.5 822.924 1087.83 822.398 C 1090.68 823.804 1092.71 825.306 1093.42 828.578 C 1095.8 839.415 1092.34 850.775 1088.05 860.683 C 1088.36 861.13 1088.68 861.576 1088.99 862.023 L 1091.2 862.545 C 1078.51 862.658 1065.82 862.845 1053.13 863.104 C 1055.58 864.406 1057.55 864.524 1060.28 864.977 C 1032.98 865.969 1004.68 864.429 977.296 865.117 C 969.063 865.323 958.335 865.446 950.244 864.718 C 946.306 863.239 944.958 863.68 940.791 864.192 L 939.374 864.371 C 940.263 855.079 940.301 846.373 939.989 836.941 C 939.809 831.481 942.553 825.486 939.274 821.431 C 948.476 822.751 983.717 822.587 992.195 820.036 z"/>
<path transform="translate(0,0)" fill="rgb(255,255,254)" d="M 1211.95 595.227 C 1249.09 590.043 1264.32 623.792 1273.65 653.449 C 1286.89 639.436 1298.46 623.46 1311.7 609.579 C 1319.17 601.745 1329.44 596.596 1340.25 597.309 C 1346.72 597.736 1358.43 597.087 1362.91 601.708 C 1356.62 609.655 1347.52 618.903 1340.69 626.671 C 1324.18 645.455 1306.77 664.022 1291.03 683.462 C 1298.17 698.395 1312.33 733.851 1322.87 743.664 L 1327.56 744.829 C 1351.5 750.586 1348.17 773.476 1324.01 779.003 C 1288.93 779.807 1277.86 744.028 1266.89 716.6 C 1257.24 728.3 1246.99 740.467 1237.47 752.236 C 1219.21 774.808 1203.92 782.153 1175.45 773.891 C 1193.75 748.795 1228.25 710.172 1249.26 685.769 C 1240.82 666.281 1233.03 645.855 1219.96 629.126 C 1219.16 628.945 1218.37 628.757 1217.57 628.563 C 1196.44 623.337 1190.6 605.648 1211.95 595.227 z"/>
</svg>