<?xml version="1.0" encoding="UTF-8"?>
<svg xmlns="http://www.w3.org/2000/svg" viewBox="0 0 1440 400">
  <rect width="1440" height="400" fill="transparent"/>
  <circle cx="85" cy="120" r="2" fill="rgba(255,255,255,0.06)"/>
  <circle cx="170" cy="280" r="3" fill="rgba(255,255,255,0.04)"/>
  <circle cx="255" cy="90" r="1.5" fill="rgba(255,255,255,0.07)"/>
  <circle cx="340" cy="200" r="2.5" fill="rgba(255,255,255,0.05)"/>
  <circle cx="425" cy="310" r="1.8" fill="rgba(255,255,255,0.06)"/>
  <circle cx="510" cy="150" r="2.2" fill="rgba(255,255,255,0.04)"/>
  <circle cx="595" cy="250" r="3" fill="rgba(255,255,255,0.05)"/>
  <circle cx="680" cy="70" r="1.5" fill="rgba(255,255,255,0.07)"/>
  <circle cx="765" cy="340" r="2" fill="rgba(255,255,255,0.04)"/>
  <circle cx="850" cy="180" r="2.8" fill="rgba(255,255,255,0.06)"/>
  <circle cx="935" cy="110" r="1.8" fill="rgba(255,255,255,0.05)"/>
  <circle cx="1020" cy="290" r="2.5" fill="rgba(255,255,255,0.04)"/>
  <circle cx="1105" cy="60" r="2" fill="rgba(255,255,255,0.06)"/>
  <circle cx="1190" cy="220" r="3" fill="rgba(255,255,255,0.05)"/>
  <circle cx="1275" cy="350" r="1.5" fill="rgba(255,255,255,0.07)"/>
  <circle cx="1360" cy="160" r="2.2" fill="rgba(255,255,255,0.04)"/>
  <circle cx="130" cy="350" r="1.8" fill="rgba(255,255,255,0.05)"/>
  <circle cx="300" cy="45" r="2" fill="rgba(255,255,255,0.06)"/>
  <circle cx="470" cy="370" r="2.5" fill="rgba(255,255,255,0.04)"/>
  <circle cx="640" cy="300" r="1.5" fill="rgba(255,255,255,0.07)"/>
  <circle cx="810" cy="55" r="2.8" fill="rgba(255,255,255,0.05)"/>
  <circle cx="980" cy="370" r="2" fill="rgba(255,255,255,0.04)"/>
  <circle cx="1150" cy="130" r="1.8" fill="rgba(255,255,255,0.06)"/>
  <circle cx="1320" cy="280" r="2.2" fill="rgba(255,255,255,0.05)"/>
  <path d="M0,380 C360,350 720,320 1080,300 C1260,290 1380,310 1440,300 L1440,400 L0,400Z" fill="rgba(255,255,255,0.025)"/>
</svg>
