<?xml version="1.0" encoding="UTF-8"?>
<svg xmlns="http://www.w3.org/2000/svg" viewBox="0 0 1440 400">
  <rect width="1440" height="400" fill="transparent"/>
  <path d="M0,200 L200,150 L400,220 L600,120 L800,180 L1000,100 L1200,170 L1440,130" fill="none" stroke="rgba(255,255,255,0.04)" stroke-width="0.8"/>
  <path d="M0,300 L180,260 L360,310 L540,240 L720,280 L900,210 L1080,270 L1260,230 L1440,260" fill="none" stroke="rgba(255,255,255,0.03)" stroke-width="0.8"/>
  <path d="M0,100 L240,140 L480,80 L720,160 L960,90 L1200,140 L1440,100" fill="none" stroke="rgba(255,255,255,0.035)" stroke-width="0.8"/>
  <circle cx="200" cy="150" r="3" fill="rgba(255,255,255,0.06)"/>
  <circle cx="400" cy="220" r="3" fill="rgba(255,255,255,0.06)"/>
  <circle cx="600" cy="120" r="3" fill="rgba(255,255,255,0.06)"/>
  <circle cx="800" cy="180" r="3" fill="rgba(255,255,255,0.06)"/>
  <circle cx="1000" cy="100" r="3" fill="rgba(255,255,255,0.06)"/>
  <circle cx="1200" cy="170" r="3" fill="rgba(255,255,255,0.06)"/>
  <circle cx="180" cy="260" r="2.5" fill="rgba(255,255,255,0.05)"/>
  <circle cx="540" cy="240" r="2.5" fill="rgba(255,255,255,0.05)"/>
  <circle cx="900" cy="210" r="2.5" fill="rgba(255,255,255,0.05)"/>
  <circle cx="1260" cy="230" r="2.5" fill="rgba(255,255,255,0.05)"/>
  <line x1="200" y1="150" x2="180" y2="260" stroke="rgba(255,255,255,0.025)" stroke-width="0.5"/>
  <line x1="600" y1="120" x2="540" y2="240" stroke="rgba(255,255,255,0.025)" stroke-width="0.5"/>
  <line x1="1000" y1="100" x2="900" y2="210" stroke="rgba(255,255,255,0.025)" stroke-width="0.5"/>
  <path d="M0,370 C360,355 720,340 1080,350 C1260,355 1380,360 1440,365 L1440,400 L0,400Z" fill="rgba(255,255,255,0.02)"/>
</svg>
