<?xml version="1.0" encoding="UTF-8"?>
<svg xmlns="http://www.w3.org/2000/svg" viewBox="0 0 1440 400">
  <rect width="1440" height="400" fill="transparent"/>
  <path d="M0,380 C180,350 360,370 540,340 C720,310 900,360 1080,330 C1260,300 1380,350 1440,340 L1440,400 L0,400Z" fill="rgba(255,255,255,0.03)"/>
  <path d="M0,360 C200,330 400,355 600,320 C800,285 1000,340 1200,310 C1350,290 1400,320 1440,310 L1440,400 L0,400Z" fill="rgba(255,255,255,0.04)"/>
  <path d="M0,340 C160,310 320,335 480,300 C640,265 800,315 960,285 C1120,255 1280,300 1440,280 L1440,400 L0,400Z" fill="rgba(255,255,255,0.05)"/>
  <path d="M0,315 C140,285 280,310 420,275 C560,240 700,290 840,260 C980,230 1120,275 1260,250 C1380,235 1440,255 1440,250 L1440,400 L0,400Z" fill="rgba(255,255,255,0.04)"/>
  <path d="M0,290 C120,260 240,280 360,248 C480,215 600,265 720,235 C840,205 960,250 1080,225 C1200,200 1320,240 1440,220 L1440,400 L0,400Z" fill="rgba(255,255,255,0.03)"/>
</svg>
